HIERARCHY
ROOT joint_Root
{
	OFFSET 0.0 0.0 0.0
	CHANNELS 6 Xposition Yposition Zposition Zrotation Xrotation Yrotation 
	JOINT Hips
	{
		OFFSET 4.5925 91.4895 -427.239
		CHANNELS 6 Xposition Yposition Zposition Zrotation Xrotation Yrotation 
		JOINT Spine
		{
			OFFSET 15.7357 0.0 0.0
			CHANNELS 6 Xposition Yposition Zposition Zrotation Xrotation Yrotation 
			JOINT Chest
			{
				OFFSET 8.98455 -0.406207 0.0
				CHANNELS 6 Xposition Yposition Zposition Zrotation Xrotation Yrotation 
				JOINT Neck
				{
					OFFSET 16.3773 0.0 0.0
					CHANNELS 6 Xposition Yposition Zposition Zrotation Xrotation Yrotation 
					JOINT Head
					{
						OFFSET 6.45672 0.0 0.0
						CHANNELS 6 Xposition Yposition Zposition Zrotation Xrotation Yrotation 
						End Site
						{
							OFFSET 0.0 0.0 0.0
						}
					}
				}
				JOINT Shoulder_L
				{
					OFFSET 12.9942 -0.242716 4.98039
					CHANNELS 6 Xposition Yposition Zposition Zrotation Xrotation Yrotation 
					JOINT UpperArm_L
					{
						OFFSET 5.34809 0.0 0.0
						CHANNELS 6 Xposition Yposition Zposition Zrotation Xrotation Yrotation 
						JOINT LowerArm_L
						{
							OFFSET 24.3286 1.87007e-05 0.0
							CHANNELS 6 Xposition Yposition Zposition Zrotation Xrotation Yrotation 
							JOINT Hand_L
							{
								OFFSET 22.2916 0.0 0.0
								CHANNELS 6 Xposition Yposition Zposition Zrotation Xrotation Yrotation 
								End Site
								{
									OFFSET 0.0 0.0 0.0
								}
							}
						}
					}
				}
				JOINT Shoulder_R
				{
					OFFSET 12.9945 -0.242716 -4.98039
					CHANNELS 6 Xposition Yposition Zposition Zrotation Xrotation Yrotation 
					JOINT UpperArm_R
					{
						OFFSET -5.34813 0.0 0.0
						CHANNELS 6 Xposition Yposition Zposition Zrotation Xrotation Yrotation 
						JOINT LowerArm_R
						{
							OFFSET -24.3289 0.000322201 0.0
							CHANNELS 6 Xposition Yposition Zposition Zrotation Xrotation Yrotation 
							JOINT Hand_R
							{
								OFFSET -22.2915 -0.000108084 0.0
								CHANNELS 6 Xposition Yposition Zposition Zrotation Xrotation Yrotation 
								End Site
								{
									OFFSET 0.0 0.0 0.0
								}
							}
						}
					}
				}
			}
		}
		JOINT UpperLeg_L
		{
			OFFSET -2.19248 -6.46944 0.0
			CHANNELS 6 Xposition Yposition Zposition Zrotation Xrotation Yrotation 
			JOINT LowerLeg_L
			{
				OFFSET 39.0811 0.0 -1.23785e-05
				CHANNELS 6 Xposition Yposition Zposition Zrotation Xrotation Yrotation 
				JOINT Foot_L
				{
					OFFSET 40.9854 0.0 -1.26872e-05
					CHANNELS 6 Xposition Yposition Zposition Zrotation Xrotation Yrotation 
					JOINT Toes_L
					{
						OFFSET 11.7543 0.0 0.0
						CHANNELS 6 Xposition Yposition Zposition Zrotation Xrotation Yrotation 
						End Site
						{
							OFFSET 0.0 0.0 0.0
						}
					}
				}
			}
		}
		JOINT UpperLeg_R
		{
			OFFSET -2.19251 6.46944 0.0
			CHANNELS 6 Xposition Yposition Zposition Zrotation Xrotation Yrotation 
			JOINT LowerLeg_R
			{
				OFFSET -39.0811 -0.00228153 -0.0401928
				CHANNELS 6 Xposition Yposition Zposition Zrotation Xrotation Yrotation 
				JOINT Foot_R
				{
					OFFSET -40.9854 0.0 0.0
					CHANNELS 6 Xposition Yposition Zposition Zrotation Xrotation Yrotation 
					JOINT Toes_R
					{
						OFFSET -11.7543 0.0 0.0
						CHANNELS 6 Xposition Yposition Zposition Zrotation Xrotation Yrotation 
						End Site
						{
							OFFSET 0.0 0.0 0.0
						}
					}
				}
			}
		}
	}
}
MOTION
Frames:	5
Frame Time:	0.0333333
0.000000 0.000000 0.000000 0.000000 0.000000 -0.000000 -0.993798 90.734100 -2.031970 89.542700 -3.657080 10.947700 15.735700 0.000005 -0.000001 86.981600 79.591000 -87.484100 8.984550 -0.406207 -0.000000 13.020100 -1.108110 -0.878575 16.377300 -0.000001 -0.000001 8.581580 -3.607550 2.263300 6.456720 -0.000001 -0.000000 -1.281720 -2.900920 0.940935 12.994200 -0.242716 4.980390 -91.471100 6.630680 -77.460900 5.348090 -0.000007 -0.000001 -58.726700 36.992700 -23.766900 24.328600 0.000019 0.000005 8.805350 21.397500 -23.005300 22.291600 -0.000001 0.000005 10.527000 5.303310 -0.020661 12.994500 -0.242716 -4.980390 88.925900 11.686400 -84.711900 -5.348130 -0.000001 -0.000004 -59.816900 35.105600 -18.507700 -24.328900 0.000322 -0.000009 3.087270 7.140680 -23.462600 -22.291500 -0.000108 -0.000004 15.344300 5.435350 -4.123580 -2.192480 -6.469440 -0.000000 -174.905000 -13.241200 -1.468200 39.081100 -0.000007 -0.000012 -0.178003 0.284174 32.062800 40.985400 -0.000006 -0.000013 0.694889 5.040110 -69.407400 11.754300 -0.000000 0.000003 -0.000188 -0.001760 -16.644100 -2.192510 6.469440 -0.000001 174.432000 20.166700 -179.850000 -39.081100 -0.002282 -0.040193 -0.198913 0.333124 31.258800 -40.985400 0.000008 0.000006 4.483190 15.059100 -70.380600 -11.754300 -0.000006 -0.000006 -0.002632 -0.036360 -18.051700
0.000000 0.000000 0.000000 0.000000 0.000000 -0.000000 -0.981802 90.737500 -2.036430 89.549100 -3.636330 10.923100 15.735700 0.000005 -0.000001 86.968300 79.599900 -87.486600 8.984550 -0.406207 -0.000000 13.002000 -1.112610 -0.909808 16.377300 -0.000001 -0.000001 8.633550 -3.630330 2.324230 6.456720 -0.000001 -0.000000 -1.258130 -2.896470 0.975260 12.994200 -0.242716 4.980390 -91.457600 6.558980 -77.441400 5.348090 -0.000007 -0.000001 -59.045200 36.036900 -23.588300 24.328600 0.000019 0.000005 8.747520 20.069600 -24.151500 22.291600 -0.000001 0.000005 10.665900 5.303850 -0.035706 12.994500 -0.242716 -4.980390 88.924600 11.637200 -84.683300 -5.348130 -0.000001 -0.000004 -59.919700 34.708000 -18.308900 -24.328900 0.000322 -0.000009 3.316750 7.201020 -24.819600 -22.291500 -0.000108 -0.000004 15.626400 5.441100 -4.324410 -2.192480 -6.469440 -0.000000 -174.923000 -13.255100 -1.489530 39.081100 -0.000007 -0.000012 -0.177930 0.284248 32.045400 40.985400 -0.000006 -0.000013 0.707266 5.054550 -69.396200 11.754300 -0.000000 0.000003 -0.000182 -0.001710 -16.642200 -2.192510 6.469440 -0.000001 174.407000 20.211600 -179.867000 -39.081100 -0.002282 -0.040193 -0.203933 0.341571 31.245600 -40.985400 0.000008 0.000006 4.472820 15.082400 -70.367800 -11.754300 -0.000006 -0.000006 -0.002592 -0.035901 -18.033000
0.000000 0.000000 0.000000 0.000000 0.000000 -0.000000 -0.980743 90.738800 -2.036900 89.539100 -3.551510 10.923600 15.735700 0.000005 -0.000001 86.910600 79.613700 -87.436500 8.984550 -0.406207 -0.000000 12.973200 -1.132120 -0.923140 16.377300 -0.000001 -0.000001 8.761090 -3.658500 2.329340 6.456720 -0.000001 -0.000000 -1.299880 -2.967320 1.041730 12.994200 -0.242716 4.980390 -91.441100 6.470390 -77.415500 5.348090 -0.000007 -0.000001 -59.102400 35.156900 -23.681200 24.328600 0.000019 0.000005 8.912530 19.072100 -25.637600 22.291600 -0.000001 0.000005 10.975300 5.306850 -0.120490 12.994500 -0.242716 -4.980390 88.909600 11.567000 -84.577400 -5.348130 -0.000001 -0.000004 -60.023600 34.240400 -18.117600 -24.328900 0.000322 -0.000009 3.546000 7.158350 -26.447700 -22.291500 -0.000108 -0.000004 15.944700 5.446480 -4.513920 -2.192480 -6.469440 -0.000000 -174.917000 -13.242400 -1.500610 39.081100 -0.000007 -0.000012 -0.175282 0.279984 32.048600 40.985400 -0.000006 -0.000013 0.723319 5.102100 -69.391400 11.754300 -0.000000 0.000003 -0.000194 -0.001804 -16.645700 -2.192510 6.469440 -0.000001 174.398000 20.297900 -179.843000 -39.081100 -0.002282 -0.040193 -0.201891 0.338412 31.230100 -40.985400 0.000008 0.000006 4.470770 15.078000 -70.366400 -11.754300 -0.000006 -0.000006 -0.002711 -0.037283 -18.089300
0.000000 0.000000 0.000000 0.000000 0.000000 -0.000000 -0.971907 90.739400 -2.042810 89.544600 -3.523540 10.890800 15.735700 0.000005 -0.000001 86.913800 79.646300 -87.450400 8.984550 -0.406207 -0.000000 12.908000 -1.127780 -0.945550 16.377300 -0.000001 -0.000001 8.899590 -3.667530 2.336890 6.456720 -0.000001 -0.000000 -1.289920 -2.970850 1.017570 12.994200 -0.242716 4.980390 -91.433000 6.404800 -77.360200 5.348090 -0.000007 -0.000001 -58.688000 34.562500 -24.125700 24.328600 0.000019 0.000005 9.520650 18.777800 -27.519700 22.291600 -0.000001 0.000005 11.227000 5.310200 -0.215585 12.994500 -0.242716 -4.980390 88.900700 11.478000 -84.492000 -5.348130 -0.000001 -0.000004 -60.170800 33.575700 -18.003200 -24.328900 0.000322 -0.000009 3.789970 7.101900 -28.189000 -22.291500 -0.000108 -0.000004 16.375400 5.452060 -4.713080 -2.192480 -6.469440 -0.000000 -174.946000 -13.222200 -1.543570 39.081100 -0.000007 -0.000012 -0.173777 0.277591 32.047600 40.985400 -0.000006 -0.000013 0.736295 5.114410 -69.386400 11.754300 -0.000000 0.000003 -0.000181 -0.001702 -16.641900 -2.192510 6.469440 -0.000001 174.381000 20.370800 -179.880000 -39.081100 -0.002282 -0.040193 -0.202783 0.339823 31.234500 -40.985400 0.000008 0.000006 4.476920 15.118300 -70.362800 -11.754300 -0.000006 -0.000006 -0.002580 -0.035759 -18.027300
0.000000 0.000000 0.000000 0.000000 0.000000 -0.000000 -0.976879 90.735500 -2.053190 89.555600 -3.480330 10.886900 15.735700 0.000005 -0.000001 86.899000 79.674100 -87.442800 8.984550 -0.406207 -0.000000 12.852200 -1.130230 -0.960205 16.377300 -0.000001 -0.000001 9.048850 -3.642690 2.299550 6.456720 -0.000001 -0.000000 -1.289780 -2.966500 0.988837 12.994200 -0.242716 4.980390 -91.411700 6.306360 -77.355000 5.348090 -0.000007 -0.000001 -58.168000 33.916600 -24.724100 24.328600 0.000019 0.000005 10.162900 18.431900 -29.551600 22.291600 -0.000001 0.000005 11.472800 5.312220 -0.272900 12.994500 -0.242716 -4.980390 88.887700 11.382100 -84.381300 -5.348130 -0.000001 -0.000004 -60.313400 32.766600 -17.933100 -24.328900 0.000322 -0.000009 4.085550 7.063020 -30.158100 -22.291500 -0.000108 -0.000004 16.866900 5.454500 -4.801300 -2.192480 -6.469440 -0.000000 -174.951000 -13.234300 -1.572840 39.081100 -0.000007 -0.000012 -0.175187 0.279633 32.066900 40.985400 -0.000006 -0.000013 0.752550 5.175910 -69.382100 11.754300 -0.000000 0.000003 -0.000184 -0.001722 -16.642700 -2.192510 6.469440 -0.000001 174.371000 20.387100 -179.896000 -39.081100 -0.002282 -0.040193 -0.203257 0.340244 31.261500 -40.985400 0.000008 0.000006 4.477400 15.098400 -70.377000 -11.754300 -0.000006 -0.000006 -0.002703 -0.037194 -18.085600
